<svg width="512" height="512" viewBox="0 0 512 512" fill="none" xmlns="http://www.w3.org/2000/svg">
<path d="M278.385 23.2541L297.982 3.11923C303.592 -2.64444 313.349 -0.0302847 315.325 7.76661L322.229 35.0026C329.058 61.9443 356.77 77.9434 383.517 70.3876L410.556 62.7483C418.296 60.5613 425.439 67.7042 423.252 75.4441L415.613 102.484C408.056 129.231 424.055 156.942 450.998 163.772L478.234 170.676C486.031 172.652 488.645 182.409 482.881 188.019L462.746 207.615C442.829 227.001 442.829 259 462.746 278.385L482.881 297.981C488.645 303.591 486.031 313.348 478.234 315.324L450.998 322.228C424.056 329.058 408.057 356.769 415.613 383.516L423.252 410.556C425.439 418.296 418.296 425.439 410.556 423.252L383.517 415.612C356.77 408.056 329.058 424.055 322.229 450.997L315.325 478.233C313.349 486.03 303.592 488.644 297.982 482.881L278.385 462.746C258.999 442.828 227.001 442.828 207.616 462.746L188.019 482.881C182.409 488.644 172.652 486.03 170.676 478.233L163.772 450.997C156.943 424.056 129.231 408.057 102.484 415.612L75.4446 423.252C67.7046 425.439 60.5618 418.296 62.7488 410.556L70.3881 383.516C77.9448 356.769 61.9457 329.058 35.0031 322.228L7.76707 315.324C-0.0298243 313.348 -2.64398 303.591 3.11969 297.981L23.2546 278.385C43.172 258.999 43.172 227 23.2546 207.615L3.11874 188.019C-2.64493 182.409 -0.030773 172.652 7.76612 170.676L35.0021 163.772C61.9438 156.942 77.9429 129.231 70.3871 102.484L62.7478 75.4441C60.5608 67.7042 67.7037 60.5613 75.4436 62.7483L102.483 70.3876C129.23 77.9444 156.942 61.9453 163.771 35.0026L170.675 7.76661C172.651 -0.0302847 182.408 -2.64444 188.018 3.11923L207.615 23.2541C227.001 43.1716 258.999 43.1716 278.385 23.2541Z" fill="#FFE177"/>
<g filter="url(#filter0_d_2303_2)">
<path d="M462.745 207.615L482.88 188.018C488.644 182.409 486.03 172.652 478.233 170.675L450.997 163.772C424.055 156.942 408.056 129.23 415.613 102.483L423.252 75.4438C425.439 67.7039 418.296 60.561 410.556 62.748L383.517 70.3873C380.133 71.3432 376.733 71.9194 373.362 72.1472C388.671 102.478 397.304 136.753 397.304 173.048C397.305 296.594 296.592 397.306 173.046 397.306C136.751 397.306 102.475 388.673 72.1447 373.364C71.9169 376.735 71.3407 380.134 70.3849 383.518L62.7456 410.558C60.5586 418.297 67.7014 425.44 75.4414 423.253L102.481 415.614C129.228 408.057 156.94 424.056 163.769 450.999L170.673 478.235C172.649 486.032 182.406 488.646 188.016 482.882L207.613 462.748C226.999 442.83 258.997 442.83 278.382 462.748L297.978 482.882C303.588 488.646 313.345 486.032 315.322 478.235L322.225 450.999C329.055 424.057 356.767 408.057 383.514 415.614L410.553 423.253C418.293 425.44 425.436 418.297 423.249 410.558L415.61 383.518C408.053 356.771 424.052 329.059 450.994 322.23L478.23 315.326C486.027 313.35 488.641 303.593 482.877 297.983L462.742 278.386C442.828 258.999 442.828 227.001 462.745 207.615Z" fill="#FFD15B"/>
</g>
<path d="M462.745 207.615L482.88 188.018C488.644 182.409 486.03 172.652 478.233 170.675L450.997 163.772C424.055 156.942 408.056 129.23 415.613 102.483L423.252 75.4438C425.439 67.7039 418.296 60.561 410.556 62.748L383.517 70.3873C380.133 71.3432 376.733 71.9194 373.362 72.1472C388.671 102.478 397.304 136.753 397.304 173.048C397.305 296.594 296.592 397.306 173.046 397.306C136.751 397.306 102.475 388.673 72.1447 373.364C71.9169 376.735 71.3407 380.134 70.3849 383.518L62.7456 410.558C60.5586 418.297 67.7014 425.44 75.4414 423.253L102.481 415.614C129.228 408.057 156.94 424.056 163.769 450.999L170.673 478.235C172.649 486.032 182.406 488.646 188.016 482.882L207.613 462.748C226.999 442.83 258.997 442.83 278.382 462.748L297.978 482.882C303.588 488.646 313.345 486.032 315.322 478.235L322.225 450.999C329.055 424.057 356.767 408.057 383.514 415.614L410.553 423.253C418.293 425.44 425.436 418.297 423.249 410.558L415.61 383.518C408.053 356.771 424.052 329.059 450.994 322.23L478.23 315.326C486.027 313.35 488.641 303.593 482.877 297.983L462.742 278.386C442.828 258.999 442.828 227.001 462.745 207.615Z" fill="#FFD15B"/>
<path d="M243.001 407.592C333.902 407.592 407.592 333.902 407.592 243.001C407.592 152.1 333.902 78.4097 243.001 78.4097C152.1 78.4097 78.4102 152.1 78.4102 243.001C78.4102 333.902 152.1 407.592 243.001 407.592Z" fill="#FFC344"/>
<path d="M341.634 111.228C362.242 138.716 374.452 172.863 374.452 209.862C374.452 300.764 300.762 374.453 209.861 374.453C172.861 374.453 138.715 362.244 111.227 341.635C141.249 381.68 189.098 407.592 242.999 407.592C333.9 407.592 407.59 333.902 407.59 243.001C407.59 189.099 381.678 141.251 341.634 111.228Z" fill="#FEB237"/>
<defs>
<filter id="filter0_d_2303_2" x="62.3457" y="62.3481" width="448.652" height="448.653" filterUnits="userSpaceOnUse" color-interpolation-filters="sRGB">
<feFlood flood-opacity="0" result="BackgroundImageFix"/>
<feColorMatrix in="SourceAlpha" type="matrix" values="0 0 0 0 0 0 0 0 0 0 0 0 0 0 0 0 0 0 127 0" result="hardAlpha"/>
<feOffset dx="20" dy="20"/>
<feGaussianBlur stdDeviation="2.5"/>
<feComposite in2="hardAlpha" operator="out"/>
<feColorMatrix type="matrix" values="0 0 0 0 0.6875 0 0 0 0 0.484014 0 0 0 0 0.154688 0 0 0 0.2 0"/>
<feBlend mode="normal" in2="BackgroundImageFix" result="effect1_dropShadow_2303_2"/>
<feBlend mode="normal" in="SourceGraphic" in2="effect1_dropShadow_2303_2" result="shape"/>
</filter>
</defs>
</svg>
